# xmcd
#
# Track frame offsets:
#	150
#	20943
#	34036
#	55955
#	79058
#	94707
#	117964
#	135535
#	154970
#
# Disc length: 2293 seconds
# Revision: 0
# Processed by: cddbd v1.5.2PL0 Copyright (c) Steve Scherf et al.
# Submitted via: dBpowerAMP V12.0
#
DISCID=7308f309
DTITLE=Rory Gallagher - Jinx
DYEAR=1982
DGENRE=Blues/Rock
TTITLE0=Signals
TTITLE1=The Devil Made Me Do It
TTITLE2=Double Vision
TTITLE3=Easy Come, Easy Go
TTITLE4=Big Guns
TTITLE5=Jinxed
TTITLE6=Bourbon
TTITLE7=Ride on Red, Ride on
TTITLE8=Loose Talk
EXTD=
EXTT0=
EXTT1=
EXTT2=
EXTT3=
EXTT4=
EXTT5=
EXTT6=
EXTT7=
EXTT8=
PLAYORDER=
